<svg id="visual" viewBox="0 0 1920 1080" width="1920" height="1080" xmlns="http://www.w3.org/2000/svg" xmlns:xlink="http://www.w3.org/1999/xlink" version="1.1"><rect x="0" y="0" width="1920" height="1080" fill="#0066FF"></rect><path d="M0 732L274 644L549 743L823 762L1097 772L1371 656L1646 667L1920 738L1920 1081L1646 1081L1371 1081L1097 1081L823 1081L549 1081L274 1081L0 1081Z" fill="#3f0af5"></path><path d="M0 721L274 739L549 738L823 803L1097 784L1371 715L1646 734L1920 832L1920 1081L1646 1081L1371 1081L1097 1081L823 1081L549 1081L274 1081L0 1081Z" fill="#3207d9"></path><path d="M0 825L274 900L549 814L823 868L1097 909L1371 809L1646 919L1920 834L1920 1081L1646 1081L1371 1081L1097 1081L823 1081L549 1081L274 1081L0 1081Z" fill="#2604bd"></path><path d="M0 889L274 866L549 906L823 960L1097 917L1371 933L1646 926L1920 964L1920 1081L1646 1081L1371 1081L1097 1081L823 1081L549 1081L274 1081L0 1081Z" fill="#1a02a2"></path><path d="M0 985L274 1016L549 979L823 963L1097 1029L1371 971L1646 1019L1920 992L1920 1081L1646 1081L1371 1081L1097 1081L823 1081L549 1081L274 1081L0 1081Z" fill="#0e0087"></path></svg>