<svg id="visual" viewBox="0 0 1920 1080" width="1920" height="1080" xmlns="http://www.w3.org/2000/svg" xmlns:xlink="http://www.w3.org/1999/xlink" version="1.1"><rect x="0" y="0" width="1920" height="1080" fill="#0066FF"></rect><path d="M0 324L45.7 328C91.3 332 182.7 340 274.2 345.2C365.7 350.3 457.3 352.7 548.8 344C640.3 335.3 731.7 315.7 823 316.2C914.3 316.7 1005.7 337.3 1097 349.8C1188.3 362.3 1279.7 366.7 1371.2 359.5C1462.7 352.3 1554.3 333.7 1645.8 331.7C1737.3 329.7 1828.7 344.3 1874.3 351.7L1920 359L1920 1081L1874.3 1081C1828.7 1081 1737.3 1081 1645.8 1081C1554.3 1081 1462.7 1081 1371.2 1081C1279.7 1081 1188.3 1081 1097 1081C1005.7 1081 914.3 1081 823 1081C731.7 1081 640.3 1081 548.8 1081C457.3 1081 365.7 1081 274.2 1081C182.7 1081 91.3 1081 45.7 1081L0 1081Z" fill="#4facf7"></path><path d="M0 398L45.7 421C91.3 444 182.7 490 274.2 506.5C365.7 523 457.3 510 548.8 500C640.3 490 731.7 483 823 466.7C914.3 450.3 1005.7 424.7 1097 430.2C1188.3 435.7 1279.7 472.3 1371.2 482.5C1462.7 492.7 1554.3 476.3 1645.8 461.3C1737.3 446.3 1828.7 432.7 1874.3 425.8L1920 419L1920 1081L1874.3 1081C1828.7 1081 1737.3 1081 1645.8 1081C1554.3 1081 1462.7 1081 1371.2 1081C1279.7 1081 1188.3 1081 1097 1081C1005.7 1081 914.3 1081 823 1081C731.7 1081 640.3 1081 548.8 1081C457.3 1081 365.7 1081 274.2 1081C182.7 1081 91.3 1081 45.7 1081L0 1081Z" fill="#2b9dfc"></path><path d="M0 549L45.7 565.2C91.3 581.3 182.7 613.7 274.2 619.8C365.7 626 457.3 606 548.8 608.2C640.3 610.3 731.7 634.7 823 648.5C914.3 662.3 1005.7 665.7 1097 646.8C1188.3 628 1279.7 587 1371.2 589.3C1462.7 591.7 1554.3 637.3 1645.8 660.7C1737.3 684 1828.7 685 1874.3 685.5L1920 686L1920 1081L1874.3 1081C1828.7 1081 1737.3 1081 1645.8 1081C1554.3 1081 1462.7 1081 1371.2 1081C1279.7 1081 1188.3 1081 1097 1081C1005.7 1081 914.3 1081 823 1081C731.7 1081 640.3 1081 548.8 1081C457.3 1081 365.7 1081 274.2 1081C182.7 1081 91.3 1081 45.7 1081L0 1081Z" fill="#008cff"></path><path d="M0 803L45.7 803.7C91.3 804.3 182.7 805.7 274.2 805.2C365.7 804.7 457.3 802.3 548.8 791C640.3 779.7 731.7 759.3 823 745.8C914.3 732.3 1005.7 725.7 1097 731.8C1188.3 738 1279.7 757 1371.2 768.5C1462.7 780 1554.3 784 1645.8 779.3C1737.3 774.7 1828.7 761.3 1874.3 754.7L1920 748L1920 1081L1874.3 1081C1828.7 1081 1737.3 1081 1645.8 1081C1554.3 1081 1462.7 1081 1371.2 1081C1279.7 1081 1188.3 1081 1097 1081C1005.7 1081 914.3 1081 823 1081C731.7 1081 640.3 1081 548.8 1081C457.3 1081 365.7 1081 274.2 1081C182.7 1081 91.3 1081 45.7 1081L0 1081Z" fill="#007aff"></path><path d="M0 947L45.7 930.7C91.3 914.3 182.7 881.7 274.2 871.3C365.7 861 457.3 873 548.8 879.8C640.3 886.7 731.7 888.3 823 890.5C914.3 892.7 1005.7 895.3 1097 896C1188.3 896.7 1279.7 895.3 1371.2 897.7C1462.7 900 1554.3 906 1645.8 898.8C1737.3 891.7 1828.7 871.3 1874.3 861.2L1920 851L1920 1081L1874.3 1081C1828.7 1081 1737.3 1081 1645.8 1081C1554.3 1081 1462.7 1081 1371.2 1081C1279.7 1081 1188.3 1081 1097 1081C1005.7 1081 914.3 1081 823 1081C731.7 1081 640.3 1081 548.8 1081C457.3 1081 365.7 1081 274.2 1081C182.7 1081 91.3 1081 45.7 1081L0 1081Z" fill="#0066ff"></path></svg>