<svg id="visual" viewBox="0 0 1920 200" width="1920" height="200" xmlns="http://www.w3.org/2000/svg" xmlns:xlink="http://www.w3.org/1999/xlink" version="1.1"><rect x="0" y="0" width="1920" height="200" fill="#0066FF"></rect><path d="M0 109L274 105L549 102L823 90L1097 109L1371 85L1646 96L1920 97L1920 201L1646 201L1371 201L1097 201L823 201L549 201L274 201L0 201Z" fill="#3207d9"></path><path d="M0 114L274 126L549 92L823 92L1097 129L1371 127L1646 130L1920 129L1920 201L1646 201L1371 201L1097 201L823 201L549 201L274 201L0 201Z" fill="#2828e2"></path><path d="M0 124L274 136L549 108L823 119L1097 123L1371 108L1646 139L1920 120L1920 201L1646 201L1371 201L1097 201L823 201L549 201L274 201L0 201Z" fill="#1c3bea"></path><path d="M0 141L274 147L549 131L823 150L1097 133L1371 146L1646 128L1920 157L1920 201L1646 201L1371 201L1097 201L823 201L549 201L274 201L0 201Z" fill="#0f4bf2"></path><path d="M0 172L274 171L549 149L823 171L1097 173L1371 162L1646 155L1920 172L1920 201L1646 201L1371 201L1097 201L823 201L549 201L274 201L0 201Z" fill="#0359f9"></path><path d="M0 181L274 173L549 182L823 168L1097 174L1371 184L1646 179L1920 170L1920 201L1646 201L1371 201L1097 201L823 201L549 201L274 201L0 201Z" fill="#0066ff"></path></svg>