<svg id="visual" viewBox="0 0 1920 1080" width="1920" height="1080" xmlns="http://www.w3.org/2000/svg" xmlns:xlink="http://www.w3.org/1999/xlink" version="1.1"><rect x="0" y="0" width="1920" height="1080" fill="#ffffff"></rect><path d="M0 682L45.7 697.7C91.3 713.3 182.7 744.7 274.2 768C365.7 791.3 457.3 806.7 548.8 810C640.3 813.3 731.7 804.7 823 790.7C914.3 776.7 1005.7 757.3 1097 756.7C1188.3 756 1279.7 774 1371.2 776.5C1462.7 779 1554.3 766 1645.8 755.5C1737.3 745 1828.7 737 1874.3 733L1920 729L1920 1081L1874.3 1081C1828.7 1081 1737.3 1081 1645.8 1081C1554.3 1081 1462.7 1081 1371.2 1081C1279.7 1081 1188.3 1081 1097 1081C1005.7 1081 914.3 1081 823 1081C731.7 1081 640.3 1081 548.8 1081C457.3 1081 365.7 1081 274.2 1081C182.7 1081 91.3 1081 45.7 1081L0 1081Z" fill="#1d4ed8" stroke-linecap="round" stroke-linejoin="miter"></path></svg>