<svg id="visual" viewBox="0 0 1920 1080" width="1920" height="1080" xmlns="http://www.w3.org/2000/svg" xmlns:xlink="http://www.w3.org/1999/xlink" version="1.1"><rect x="0" y="0" width="1920" height="1080" fill="#F3F4F6"></rect><path d="M0 832L64 839.7C128 847.3 256 862.7 384 856C512 849.3 640 820.7 768 811.7C896 802.7 1024 813.3 1152 838.3C1280 863.3 1408 902.7 1536 894.7C1664 886.7 1792 831.3 1856 803.7L1920 776L1920 1081L1856 1081C1792 1081 1664 1081 1536 1081C1408 1081 1280 1081 1152 1081C1024 1081 896 1081 768 1081C640 1081 512 1081 384 1081C256 1081 128 1081 64 1081L0 1081Z" fill="#0066FF" stroke-linecap="round" stroke-linejoin="miter"></path></svg>